<svg xmlns="http://www.w3.org/2000/svg" viewBox="0 0 702.73 937.89"><defs><style>.cls-1{fill:#b1dfd5;}.cls-2{font-size:60px;}.cls-2,.cls-6{fill:#85a099;}.cls-2,.cls-6,.cls-7,.cls-8{font-family:Didot;}.cls-3{letter-spacing:-0.09em;}.cls-4{fill:#f48b52;}.cls-10,.cls-5{fill:#f18951;}.cls-5{stroke:#e27a4d;stroke-miterlimit:10;stroke-width:20px;}.cls-6{font-size:48px;}.cls-7{font-size:39.16px;}.cls-7,.cls-8{fill:#c66847;}.cls-8{font-size:39px;}.cls-9{fill:#e27a4d;}</style></defs><title>GameSiegelRegensburg_V2</title><g id="Ebene_1" data-name="Ebene 1"><polygon class="cls-1" points="416.5 901.17 497.75 802.55 624.79 816.34 463.48 420.25 334.85 402.54 255.19 505.08 416.5 901.17"/><polygon class="cls-1" points="252.58 937.89 165.37 844.5 39.44 866.13 175.91 460.81 303.2 435.17 389.05 532.58 252.58 937.89"/><text class="cls-2" transform="matrix(0.33, -0.94, 0.94, 0.33, 190.69, 841.27)">COM<tspan class="cls-3" x="145.44" y="0">P</tspan><tspan x="178.86" y="0">ANY</tspan></text><path class="cls-4" d="M544.85,65.36h0c8.64,34.48,51.8,46.05,76.52,20.5h0c32.78-33.89,89.08-1.39,76.12,44h0c-9.76,34.18,21.84,65.78,56,56h0c45.34-12.95,77.84,43.34,44,76.13h0c-25.55,24.72-14,67.88,20.5,76.51h0c45.74,11.45,45.74,76.46,0,87.91h0c-34.48,8.63-46.05,51.8-20.5,76.51h0c33.89,32.79,1.39,89.08-44,76.13h0c-34.18-9.77-65.78,21.83-56,56h0c13,45.34-43.34,77.84-76.12,44h0c-24.72-25.55-67.88-14-76.52,20.5h0c-11.44,45.74-76.45,45.74-87.9,0h0c-8.63-34.48-51.8-46.05-76.51-20.5h0c-32.79,33.89-89.08,1.39-76.13-44h0c9.77-34.18-21.83-65.78-56-56h0c-45.34,13-77.84-43.34-44-76.13h0c25.55-24.71,14-67.88-20.5-76.51h0c-45.75-11.45-45.75-76.46,0-87.91h0c34.48-8.63,46.05-51.79,20.5-76.51h0c-33.89-32.79-1.39-89.08,44-76.13h0c34.18,9.77,65.78-21.83,56-56h0C291.36,84.47,347.65,52,380.44,85.86h0c24.71,25.55,67.88,14,76.51-20.5h0C468.4,19.62,533.41,19.62,544.85,65.36Z" transform="translate(-149.54 -31.05)"/><circle class="cls-5" cx="351.36" cy="351.36" r="254.37"/><text class="cls-6" transform="translate(504.28 677.94) rotate(67.16)">1638<tspan x="0" y="45">4902</tspan><tspan x="0" y="90">7401</tspan><tspan x="0" y="135">5273</tspan></text><text class="cls-7" transform="matrix(0.35, -0.94, 0.94, 0.35, 149.04, 301.26)">D</text><text class="cls-7" transform="matrix(0.47, -0.88, 0.88, 0.47, 159.86, 272.22)">E</text><text class="cls-7" transform="translate(172.45 248.64) rotate(-54.22)">V</text><text class="cls-7" transform="matrix(0.69, -0.73, 0.73, 0.69, 188.48, 226.35)">E</text><text class="cls-7" transform="translate(206.7 206.76) rotate(-38.91)">L</text><text class="cls-7" transform="translate(226.63 190.16) rotate(-31.65)">O</text><text class="cls-7" transform="translate(253.7 173.68) rotate(-23.87)">P</text><text class="cls-7" transform="translate(276.15 163.62) rotate(-16.73)">E</text><text class="cls-7" transform="matrix(0.99, -0.15, 0.15, 0.99, 301.64, 155.74)">D</text><text class="cls-7" transform="translate(332.55 151.47) rotate(-3.05)"> </text><text class="cls-7" transform="translate(343.04 150.84) rotate(0.43)">I</text><text class="cls-7" transform="translate(357.59 150.58) rotate(6.2)">N</text><text class="cls-7" transform="translate(385.03 153.93) rotate(11.4)"> </text><text class="cls-7" transform="matrix(0.96, 0.29, -0.29, 0.96, 395.2, 155.55)">R</text><text class="cls-7" transform="translate(421.5 163.31) rotate(24.29)">A</text><text class="cls-7" transform="matrix(0.86, 0.52, -0.52, 0.86, 444.65, 173.59)">T</text><text class="cls-7" transform="matrix(0.8, 0.6, -0.6, 0.8, 466.9, 187.25)">I</text><text class="cls-7" transform="translate(478.76 195.72) rotate(42.2)">S</text><text class="cls-7" transform="translate(497.56 212.71) rotate(49.13)">B</text><text class="cls-7" transform="translate(514.3 231.63) rotate(56.89)">O</text><text class="cls-7" transform="translate(531.52 258.17) rotate(65.05)">N</text><text class="cls-7" transform="translate(542.39 281.06) rotate(72.19)">A</text><text class="cls-7" transform="translate(550.69 308.19) rotate(77.55)"> </text><text class="cls-8" transform="matrix(0.57, 0.82, -0.82, 0.57, 153.58, 483.34)">R</text><text class="cls-8" transform="translate(171.17 508.32) rotate(47.36)">E</text><text class="cls-8" transform="matrix(0.78, 0.63, -0.63, 0.78, 191.6, 530.43)">G</text><text class="cls-8" transform="translate(218.11 551.26) rotate(29.97)">E</text><text class="cls-8" transform="translate(244.13 566.07) rotate(21.84)">N</text><text class="cls-8" transform="matrix(0.97, 0.25, -0.25, 0.97, 272.46, 577.16)">S</text><text class="cls-8" transform="translate(299.62 583.99) rotate(7.87)">B</text><text class="cls-8" transform="matrix(1, 0.03, -0.03, 1, 327.26, 587.78)">U</text><text class="cls-8" transform="matrix(1, -0.08, 0.08, 1, 358.81, 588.57)">R</text><text class="cls-8" transform="translate(389.09 586.04) rotate(-12.01)">G</text><text class="cls-8" transform="translate(419.43 579.12) rotate(-17.15)">.</text><text class="cls-8" transform="matrix(0.92, -0.39, 0.39, 0.92, 431.62, 575.81)">G</text><text class="cls-8" transform="matrix(0.85, -0.52, 0.52, 0.85, 462.53, 562.46)">A</text><text class="cls-8" transform="translate(489.53 545.93) rotate(-40.42)">M</text><text class="cls-8" transform="translate(517.06 521.9) rotate(-49.03)">E</text><text class="cls-8" transform="translate(536.37 499.36) rotate(-56.25)">S</text></g><g id="Ebene_2" data-name="Ebene 2"><path class="cls-9" d="M639.59,515.35c.8,29.86-73.58,60.66-138.69,60.72-64.56.06-139.11-30.09-138.69-60.72.38-27.42,60.77-48.18,90.34-56.92A52.71,52.71,0,0,0,499.14,485c28.16-.55,42.89-23.88,43.84-25.43C572.2,467.28,638.85,487.36,639.59,515.35Z" transform="translate(-149.54 -31.05)"/><path class="cls-9" d="M362.21,514.43l8.22-82.86a9.09,9.09,0,0,1,.21-1.27L406,283.2c.05-.2.09-.41.13-.61l8.46-49.66c1.58-9.27,14.88-9.3,16.5,0l35.48,202.88a8,8,0,0,1,.12,1l2.09,30.53a5.5,5.5,0,0,0,9.43,3.45l12.58-13V421.26a4.11,4.11,0,0,1,1-2.69l7.22-8.34a1.51,1.51,0,0,1,2.29,0l7.51,8.67a3,3,0,0,1,.72,1.93v36.92l12.56,13a5.5,5.5,0,0,0,9.44-3.46l2.09-30.5a8,8,0,0,1,.12-1l35.2-201.26c1.67-9.58,15.42-9.55,17.06,0l8.18,48c0,.2.08.41.13.61l35.32,147.1a10.87,10.87,0,0,1,.22,1.27l9.77,82.86" transform="translate(-149.54 -31.05)"/><text x="-149.54" y="-31.05"/><rect class="cls-10" x="403.24" y="471.93" width="54.44" height="17.56" rx="8.76"/><rect class="cls-10" x="552.78" y="502.98" width="54.44" height="17.56" rx="8.66" transform="translate(942.22 -99.29) rotate(90)"/><circle class="cls-10" cx="253.8" cy="480.71" r="8.78"/><circle class="cls-10" cx="272.25" cy="499.15" r="8.78"/><circle class="cls-10" cx="290.69" cy="480.71" r="8.78"/><circle class="cls-10" cx="272.25" cy="462.26" r="8.78"/></g></svg>